# Blender v2.80 (sub 74) OBJ File: 'grass.blend'
# www.blender.org
mtllib grass.mtl
o Plane
v -1.000000 -0.032335 -0.000000
v 1.000000 -0.032335 -0.000000
v -1.000000 1.967665 0.000000
v 1.000000 1.967665 0.000000
v 0.000000 -0.032335 1.000000
v -0.000000 -0.032335 -1.000000
v 0.000000 1.967665 1.000000
v 0.000000 1.967665 -1.000000
vt 0.000000 0.000000
vt 1.000000 0.000000
vt 1.000000 1.000000
vt 0.000000 1.000000
vt 0.000000 0.000000
vt 1.000000 0.000000
vt 1.000000 1.000000
vt 0.000000 1.000000
vn 0.0000 -0.0000 1.0000
vn 1.0000 -0.0000 -0.0000
usemtl None
s off
f 1/1/1 2/2/1 4/3/1 3/4/1
f 5/5/2 6/6/2 8/7/2 7/8/2
o Plane.001
v 4.049631 0.065615 0.056555
v 3.925628 0.065615 0.011421
v 4.010915 1.811972 0.028581
v 3.973267 1.811972 0.014878
v 4.027721 0.953881 0.120273
v 3.901454 0.953881 0.074315
v 3.978544 0.028815 0.058950
v 3.991609 1.848992 0.023055
v 3.950096 0.950058 0.137110
v 3.932321 1.448581 0.061158
v 4.012533 1.448581 0.090353
v 3.963018 1.443260 0.101606
v 4.043547 0.443277 0.094707
v 3.905765 0.443277 0.044558
v 3.958715 0.444533 0.113431
vt 0.500000 0.750000
vt 1.000000 0.750000
vt 1.000000 1.000000
vt 0.500000 1.000000
vt 0.500000 0.250000
vt 1.000000 0.250000
vt 1.000000 0.500000
vt 0.500000 0.500000
vt 0.000000 0.250000
vt 0.000000 0.500000
vt 0.000000 0.750000
vt 0.000000 1.000000
vt 0.000000 0.000000
vt 0.500000 0.000000
vt 1.000000 0.000000
vn 0.3391 -0.1307 -0.9316
vn 0.7678 -0.1223 -0.6289
vn 0.7474 -0.1717 -0.6418
vn 0.3354 -0.1961 -0.9214
vn 0.3407 0.0866 -0.9362
vn 0.7716 0.0770 -0.6313
vn 0.7910 -0.0121 -0.6116
vn 0.3420 -0.0113 -0.9396
vn -0.1853 0.0770 -0.9796
vn -0.2128 -0.0121 -0.9770
vn -0.1839 -0.1223 -0.9753
vn -0.1600 -0.1717 -0.9720
vn -0.1578 0.1094 -0.9814
vn 0.3393 0.1250 -0.9323
vn 0.7517 0.1094 -0.6503
usemtl None
s 1
f 20/9/3 18/10/4 12/11/5 16/12/6
f 23/13/7 22/14/8 14/15/9 17/16/10
f 21/17/11 23/13/7 17/16/10 13/18/12
f 19/19/13 20/9/3 16/12/6 11/20/14
f 13/18/12 17/16/10 20/9/3 19/19/13
f 17/16/10 14/15/9 18/10/4 20/9/3
f 9/21/15 15/22/16 23/13/7 21/17/11
f 15/22/16 10/23/17 22/14/8 23/13/7
o Plane.002
v 4.160030 0.052464 -0.059177
v 4.012115 0.052464 0.001228
v 4.102556 2.166874 -0.052766
v 4.057647 2.166874 -0.034427
v 4.192218 1.127936 0.015785
v 4.041603 1.127936 0.077293
v 4.098232 0.007909 0.000800
v 4.080747 2.211697 -0.042015
v 4.136306 1.123308 0.094032
v 4.058579 1.726897 0.040384
v 4.154258 1.726897 0.001311
v 4.119011 1.720454 0.051683
v 4.185611 0.509721 -0.020015
v 4.021261 0.509721 0.047102
v 4.124771 0.511242 0.065787
vt 0.500000 0.750000
vt 1.000000 0.750000
vt 1.000000 1.000000
vt 0.500000 1.000000
vt 0.500000 0.250000
vt 1.000000 0.250000
vt 1.000000 0.500000
vt 0.500000 0.500000
vt 0.000000 0.250000
vt 0.000000 0.500000
vt 0.000000 0.750000
vt 0.000000 1.000000
vt 0.000000 0.000000
vt 0.500000 0.000000
vt 1.000000 0.000000
vn -0.3748 -0.1307 -0.9178
vn 0.1461 -0.1223 -0.9817
vn 0.1223 -0.1717 -0.9775
vn -0.3707 -0.1961 -0.9078
vn -0.3766 0.0866 -0.9223
vn 0.1473 0.0770 -0.9861
vn 0.1749 -0.0121 -0.9845
vn -0.3780 -0.0113 -0.9257
vn -0.7955 0.0770 -0.6011
vn -0.8141 -0.0121 -0.5806
vn -0.7915 -0.1223 -0.5987
vn -0.7716 -0.1717 -0.6124
vn -0.7763 0.1094 -0.6207
vn -0.3751 0.1250 -0.9185
vn 0.1198 0.1094 -0.9867
usemtl None
s 1
f 35/24/18 33/25/19 27/26/20 31/27/21
f 38/28/22 37/29/23 29/30/24 32/31/25
f 36/32/26 38/28/22 32/31/25 28/33/27
f 34/34/28 35/24/18 31/27/21 26/35/29
f 28/33/27 32/31/25 35/24/18 34/34/28
f 32/31/25 29/30/24 33/25/19 35/24/18
f 24/36/30 30/37/31 38/28/22 36/32/26
f 30/37/31 25/38/32 37/29/23 38/28/22
o Plane.003
v 3.928357 0.054498 0.053482
v 3.850905 0.054498 -0.011025
v 3.907765 1.388420 0.023365
v 3.884250 1.388420 0.003780
v 3.896132 0.732983 0.093612
v 3.817266 0.732983 0.027927
v 3.876646 0.026390 0.036819
v 3.895318 1.416697 0.014400
v 3.835986 0.730063 0.085638
v 3.842853 1.110851 0.026453
v 3.892953 1.110851 0.068180
v 3.854455 1.106786 0.063463
v 3.914117 0.342968 0.079329
v 3.828060 0.342968 0.007655
v 3.848305 0.343928 0.070848
vt 0.500000 0.750000
vt 1.000000 0.750000
vt 1.000000 1.000000
vt 0.500000 1.000000
vt 0.500000 0.250000
vt 1.000000 0.250000
vt 1.000000 0.500000
vt 0.500000 0.500000
vt 0.000000 0.250000
vt 0.000000 0.500000
vt 0.000000 0.750000
vt 0.000000 1.000000
vt 0.000000 0.000000
vt 0.500000 0.000000
vt 1.000000 0.000000
vn 0.6345 -0.1307 -0.7618
vn 0.9354 -0.1223 -0.3318
vn 0.9205 -0.1717 -0.3508
vn 0.6275 -0.1961 -0.7535
vn 0.6376 0.0866 -0.7655
vn 0.9398 0.0770 -0.3328
vn 0.9514 -0.0121 -0.3077
vn 0.6399 -0.0113 -0.7683
vn 0.1573 0.0770 -0.9845
vn 0.1305 -0.0121 -0.9914
vn 0.1571 -0.1223 -0.9799
vn 0.1786 -0.1717 -0.9688
vn 0.1837 0.1094 -0.9769
vn 0.6349 0.1250 -0.7624
vn 0.9275 0.1094 -0.3574
usemtl None
s 1
f 50/39/33 48/40/34 42/41/35 46/42/36
f 53/43/37 52/44/38 44/45/39 47/46/40
f 51/47/41 53/43/37 47/46/40 43/48/42
f 49/49/43 50/39/33 46/42/36 41/50/44
f 43/48/42 47/46/40 50/39/33 49/49/43
f 47/46/40 44/45/39 48/40/34 50/39/33
f 39/51/45 45/52/46 53/43/37 51/47/41
f 45/52/46 40/53/47 52/44/38 53/43/37
o Plane.004
v 3.694330 0.050245 -0.140395
v 3.828738 0.050245 -0.165005
v 3.743563 1.858557 -0.135678
v 3.784371 1.858557 -0.143149
v 3.680538 0.970023 -0.208789
v 3.817401 0.970023 -0.233848
v 3.756580 0.012140 -0.179757
v 3.763704 1.896891 -0.140850
v 3.741068 0.966065 -0.264476
v 3.796716 1.482275 -0.205932
v 3.709773 1.482275 -0.190013
v 3.748114 1.476764 -0.225993
v 3.679788 0.441305 -0.177664
v 3.829131 0.441305 -0.205008
v 3.745767 0.442606 -0.238809
vt 0.500000 0.750000
vt 1.000000 0.750000
vt 1.000000 1.000000
vt 0.500000 1.000000
vt 0.500000 0.250000
vt 1.000000 0.250000
vt 1.000000 0.500000
vt 0.500000 0.500000
vt 0.000000 0.250000
vt 0.000000 0.500000
vt 0.000000 0.750000
vt 0.000000 1.000000
vt 0.000000 0.000000
vt 0.500000 0.000000
vt 1.000000 0.000000
vn 0.1785 -0.1307 0.9752
vn -0.3444 -0.1223 0.9308
vn -0.3202 -0.1717 0.9316
vn 0.1766 -0.1961 0.9645
vn 0.1794 0.0866 0.9799
vn -0.3464 0.0770 0.9349
vn -0.3731 -0.0121 0.9277
vn 0.1801 -0.0113 0.9836
vn 0.6552 0.0770 0.7515
vn 0.6776 -0.0121 0.7353
vn 0.6518 -0.1223 0.7484
vn 0.6296 -0.1717 0.7577
vn 0.6324 0.1094 0.7668
vn 0.1787 0.1250 0.9759
vn -0.3197 0.1094 0.9412
usemtl None
s 1
f 65/54/48 63/55/49 57/56/50 61/57/51
f 68/58/52 67/59/53 59/60/54 62/61/55
f 66/62/56 68/58/52 62/61/55 58/63/57
f 64/64/58 65/54/48 61/57/51 56/65/59
f 58/63/57 62/61/55 65/54/48 64/64/58
f 62/61/55 59/60/54 63/55/49 65/54/48
f 54/66/60 60/67/61 68/58/52 66/62/56
f 60/67/61 55/68/62 67/59/53 68/58/52
o Plane.005
v 3.583475 0.047165 -0.176112
v 3.740295 0.047165 -0.141574
v 3.634665 2.172229 -0.148584
v 3.682277 2.172229 -0.138098
v 3.599676 1.128056 -0.256487
v 3.759360 1.128056 -0.221318
v 3.668838 0.002385 -0.190411
v 3.658840 2.217277 -0.145017
v 3.690608 1.123404 -0.289255
v 3.724238 1.730035 -0.200494
v 3.622799 1.730035 -0.222835
v 3.680719 1.723559 -0.244356
v 3.584691 0.506725 -0.223109
v 3.758936 0.506725 -0.184733
v 3.684012 0.508254 -0.259309
vt 0.500000 0.750000
vt 1.000000 0.750000
vt 1.000000 1.000000
vt 0.500000 1.000000
vt 0.500000 0.250000
vt 1.000000 0.250000
vt 1.000000 0.500000
vt 0.500000 0.500000
vt 0.000000 0.250000
vt 0.000000 0.500000
vt 0.000000 0.750000
vt 0.000000 1.000000
vt 0.000000 0.000000
vt 0.500000 0.000000
vt 1.000000 0.000000
vn -0.2132 -0.1307 0.9682
vn -0.6782 -0.1223 0.7246
vn -0.6562 -0.1717 0.7348
vn -0.2109 -0.1961 0.9576
vn -0.2143 0.0866 0.9729
vn -0.6816 0.0770 0.7276
vn -0.7035 -0.0121 0.7106
vn -0.2151 -0.0113 0.9765
vn 0.3129 0.0770 0.9467
vn 0.3398 -0.0121 0.9404
vn 0.3110 -0.1223 0.9425
vn 0.2868 -0.1717 0.9424
vn 0.2859 0.1094 0.9520
vn -0.2134 0.1250 0.9689
vn -0.6594 0.1094 0.7438
usemtl None
s 1
f 80/69/63 78/70/64 72/71/65 76/72/66
f 83/73/67 82/74/68 74/75/69 77/76/70
f 81/77/71 83/73/67 77/76/70 73/78/72
f 79/79/73 80/69/63 76/72/66 71/80/74
f 73/78/72 77/76/70 80/69/63 79/79/73
f 77/76/70 74/75/69 78/70/64 80/69/63
f 69/81/75 75/82/76 83/73/67 81/77/71
f 75/82/76 70/83/77 82/74/68 83/73/67
o Plane.006
v 3.570955 0.059278 -0.095365
v 3.453265 0.059278 -0.071841
v 3.527651 1.647566 -0.098808
v 3.491919 1.647566 -0.091666
v 3.584039 0.867144 -0.035497
v 3.464201 0.867144 -0.011543
v 3.516846 0.025810 -0.059912
v 3.510036 1.681236 -0.093979
v 3.531673 0.863667 0.014268
v 3.481970 1.317067 -0.036354
v 3.558098 1.317067 -0.051570
v 3.524938 1.312227 -0.019428
v 3.584255 0.402757 -0.062843
v 3.453489 0.402757 -0.036704
v 3.527181 0.403900 -0.008206
vt 0.500000 0.750000
vt 1.000000 0.750000
vt 1.000000 1.000000
vt 0.500000 1.000000
vt 0.500000 0.250000
vt 1.000000 0.250000
vt 1.000000 0.500000
vt 0.500000 0.500000
vt 0.000000 0.250000
vt 0.000000 0.500000
vt 0.000000 0.750000
vt 0.000000 1.000000
vt 0.000000 0.000000
vt 0.500000 0.000000
vt 1.000000 0.000000
vn -0.1943 -0.1307 -0.9722
vn 0.3293 -0.1223 -0.9362
vn 0.3051 -0.1717 -0.9367
vn -0.1922 -0.1961 -0.9615
vn -0.1953 0.0866 -0.9769
vn 0.3313 0.0770 -0.9404
vn 0.3581 -0.0121 -0.9336
vn -0.1960 -0.0113 -0.9805
vn -0.6673 0.0770 -0.7408
vn -0.6895 -0.0121 -0.7242
vn -0.6639 -0.1223 -0.7377
vn -0.6417 -0.1717 -0.7474
vn -0.6448 0.1094 -0.7565
vn -0.1945 0.1250 -0.9729
vn 0.3044 0.1094 -0.9462
usemtl None
s 1
f 95/84/78 93/85/79 87/86/80 91/87/81
f 98/88/82 97/89/83 89/90/84 92/91/85
f 96/92/86 98/88/82 92/91/85 88/93/87
f 94/94/88 95/84/78 91/87/81 86/95/89
f 88/93/87 92/91/85 95/84/78 94/94/88
f 92/91/85 89/90/84 93/85/79 95/84/78
f 84/96/90 90/97/91 98/88/82 96/92/86
f 90/97/91 85/98/92 97/89/83 98/88/82
o Plane.007
v 3.457495 0.038329 -0.063889
v 3.345214 0.038329 -0.106283
v 3.422590 2.134573 -0.089749
v 3.388500 2.134573 -0.102620
v 3.436877 1.104561 -0.006180
v 3.322546 1.104561 -0.049348
v 3.392821 -0.005844 -0.062484
v 3.405092 2.179010 -0.094985
v 3.366099 1.099972 0.008288
v 3.350760 1.698376 -0.060978
v 3.423389 1.698376 -0.033555
v 3.378237 1.691988 -0.023859
v 3.451546 0.491656 -0.029258
v 3.326790 0.491656 -0.076363
v 3.374195 0.493165 -0.013153
vt 0.500000 0.750000
vt 1.000000 0.750000
vt 1.000000 1.000000
vt 0.500000 1.000000
vt 0.500000 0.250000
vt 1.000000 0.250000
vt 1.000000 0.500000
vt 0.500000 0.500000
vt 0.000000 0.250000
vt 0.000000 0.500000
vt 0.000000 0.750000
vt 0.000000 1.000000
vt 0.000000 0.000000
vt 0.500000 0.000000
vt 1.000000 0.000000
vn 0.3515 -0.0991 -0.9309
vn 0.7773 -0.0939 -0.6220
vn 0.7598 -0.1309 -0.6368
vn 0.3492 -0.1498 -0.9250
vn 0.3525 0.0659 -0.9335
vn 0.7801 0.0584 -0.6228
vn 0.7983 -0.0098 -0.6022
vn 0.3532 -0.0081 -0.9355
vn -0.1738 0.0584 -0.9830
vn -0.2011 -0.0098 -0.9795
vn -0.1722 -0.0939 -0.9806
vn -0.1493 -0.1309 -0.9801
vn -0.1465 0.0831 -0.9857
vn 0.3516 0.0950 -0.9313
vn 0.7614 0.0831 -0.6429
usemtl None
s 1
f 110/99/93 108/100/94 102/101/95 106/102/96
f 113/103/97 112/104/98 104/105/99 107/106/100
f 111/107/101 113/103/97 107/106/100 103/108/102
f 109/109/103 110/99/93 106/102/96 101/110/104
f 103/108/102 107/106/100 110/99/93 109/109/103
f 107/106/100 104/105/99 108/100/94 110/99/93
f 99/111/105 105/112/106 113/103/97 111/107/101
f 105/112/106 100/113/107 112/104/98 113/103/97
o Plane.008
v 4.644381 0.074244 -0.043858
v 4.520378 0.074244 -0.088991
v 4.605665 1.623430 -0.071831
v 4.568017 1.623430 -0.085534
v 4.622471 0.862220 0.019861
v 4.496204 0.862220 -0.026097
v 4.573294 0.041599 -0.041463
v 4.586359 1.656271 -0.077357
v 4.544846 0.858829 0.036698
v 4.527071 1.301067 -0.039254
v 4.607283 1.301067 -0.010059
v 4.557768 1.296347 0.001194
v 4.638297 0.409266 -0.005706
v 4.500515 0.409266 -0.055854
v 4.553464 0.410381 0.013018
vt 0.500000 0.750000
vt 1.000000 0.750000
vt 1.000000 1.000000
vt 0.500000 1.000000
vt 0.500000 0.250000
vt 1.000000 0.250000
vt 1.000000 0.500000
vt 0.500000 0.500000
vt 0.000000 0.250000
vt 0.000000 0.500000
vt 0.000000 0.750000
vt 0.000000 1.000000
vt 0.000000 0.000000
vt 0.500000 0.000000
vt 1.000000 0.000000
vn 0.3383 -0.1470 -0.9295
vn 0.7664 -0.1371 -0.6275
vn 0.7444 -0.1928 -0.6392
vn 0.3336 -0.2199 -0.9167
vn 0.3404 0.0974 -0.9352
vn 0.7710 0.0868 -0.6309
vn 0.7910 -0.0133 -0.6116
vn 0.3420 -0.0129 -0.9396
vn -0.1851 0.0868 -0.9789
vn -0.2128 -0.0133 -0.9770
vn -0.1838 -0.1371 -0.9733
vn -0.1593 -0.1928 -0.9682
vn -0.1576 0.1231 -0.9798
vn 0.3386 0.1407 -0.9303
vn 0.7505 0.1231 -0.6493
usemtl None
s 1
f 125/114/108 123/115/109 117/116/110 121/117/111
f 128/118/112 127/119/113 119/120/114 122/121/115
f 126/122/116 128/118/112 122/121/115 118/123/117
f 124/124/118 125/114/108 121/117/111 116/125/119
f 118/123/117 122/121/115 125/114/108 124/124/118
f 122/121/115 119/120/114 123/115/109 125/114/108
f 114/126/120 120/127/121 128/118/112 126/122/116
f 120/127/121 115/128/122 127/119/113 128/118/112
o Plane.009
v 4.754780 0.062578 -0.159589
v 4.606865 0.062578 -0.099184
v 4.697306 1.938262 -0.153178
v 4.652397 1.938262 -0.134839
v 4.786968 1.016625 -0.084628
v 4.636353 1.016625 -0.023119
v 4.692982 0.023053 -0.099612
v 4.675497 1.978024 -0.142428
v 4.731056 1.012518 -0.006380
v 4.653329 1.547961 -0.060029
v 4.749008 1.547961 -0.099102
v 4.713761 1.542245 -0.048730
v 4.780361 0.468208 -0.120427
v 4.616011 0.468208 -0.053311
v 4.719521 0.469557 -0.034626
vt 0.500000 0.750000
vt 1.000000 0.750000
vt 1.000000 1.000000
vt 0.500000 1.000000
vt 0.500000 0.250000
vt 1.000000 0.250000
vt 1.000000 0.500000
vt 0.500000 0.500000
vt 0.000000 0.250000
vt 0.000000 0.500000
vt 0.000000 0.750000
vt 0.000000 1.000000
vt 0.000000 0.000000
vt 0.500000 0.000000
vt 1.000000 0.000000
vn -0.3739 -0.1470 -0.9157
vn 0.1460 -0.1371 -0.9797
vn 0.1218 -0.1928 -0.9736
vn -0.3688 -0.2199 -0.9031
vn -0.3763 0.0974 -0.9214
vn 0.1471 0.0868 -0.9853
vn 0.1749 -0.0133 -0.9845
vn -0.3780 -0.0129 -0.9257
vn -0.7948 0.0868 -0.6006
vn -0.8141 -0.0133 -0.5806
vn -0.7901 -0.1371 -0.5974
vn -0.7685 -0.1928 -0.6100
vn -0.7750 0.1231 -0.6198
vn -0.3743 0.1407 -0.9166
vn 0.1196 0.1231 -0.9851
usemtl None
s 1
f 140/129/123 138/130/124 132/131/125 136/132/126
f 143/133/127 142/134/128 134/135/129 137/136/130
f 141/137/131 143/133/127 137/136/130 133/138/132
f 139/139/133 140/129/123 136/132/126 131/140/134
f 133/138/132 137/136/130 140/129/123 139/139/133
f 137/136/130 134/135/129 138/130/124 140/129/123
f 129/141/135 135/142/136 143/133/127 141/137/131
f 135/142/136 130/143/137 142/134/128 143/133/127
o Plane.010
v 4.523107 0.064382 -0.046930
v 4.445655 0.064382 -0.111437
v 4.502515 1.247698 -0.077048
v 4.479000 1.247698 -0.096633
v 4.490881 0.666263 -0.006801
v 4.412015 0.666263 -0.072486
v 4.471395 0.039447 -0.063593
v 4.490068 1.272783 -0.086012
v 4.430736 0.663673 -0.014774
v 4.437603 1.001468 -0.073959
v 4.487703 1.001468 -0.032233
v 4.449205 0.997862 -0.036950
v 4.508867 0.320283 -0.021083
v 4.422810 0.320283 -0.092758
v 4.443054 0.321134 -0.029564
vt 0.500000 0.750000
vt 1.000000 0.750000
vt 1.000000 1.000000
vt 0.500000 1.000000
vt 0.500000 0.250000
vt 1.000000 0.250000
vt 1.000000 0.500000
vt 0.500000 0.500000
vt 0.000000 0.250000
vt 0.000000 0.500000
vt 0.000000 0.750000
vt 0.000000 1.000000
vt 0.000000 0.000000
vt 0.500000 0.000000
vt 1.000000 0.000000
vn 0.6330 -0.1470 -0.7600
vn 0.9336 -0.1371 -0.3309
vn 0.9169 -0.1928 -0.3494
vn 0.6243 -0.2199 -0.7496
vn 0.6369 0.0974 -0.7647
vn 0.9391 0.0868 -0.3326
vn 0.9514 -0.0133 -0.3077
vn 0.6399 -0.0129 -0.7683
vn 0.1572 0.0868 -0.9837
vn 0.1305 -0.0133 -0.9913
vn 0.1566 -0.1371 -0.9781
vn 0.1778 -0.1928 -0.9650
vn 0.1834 0.1231 -0.9753
vn 0.6336 0.1407 -0.7607
vn 0.9260 0.1231 -0.3568
usemtl None
s 1
f 155/144/138 153/145/139 147/146/140 151/147/141
f 158/148/142 157/149/143 149/150/144 152/151/145
f 156/152/146 158/148/142 152/151/145 148/153/147
f 154/154/148 155/144/138 151/147/141 146/155/149
f 148/153/147 152/151/145 155/144/138 154/154/148
f 152/151/145 149/150/144 153/145/139 155/144/138
f 144/156/150 150/157/151 158/148/142 156/152/146
f 150/157/151 145/158/152 157/149/143 158/148/142
o Plane.011
v 4.436979 0.060609 -0.191738
v 4.302570 0.060609 -0.167128
v 4.387745 1.664755 -0.196455
v 4.346938 1.664755 -0.188984
v 4.450770 0.876541 -0.123344
v 4.313907 0.876541 -0.098285
v 4.374728 0.026806 -0.152376
v 4.367605 1.698761 -0.191283
v 4.390240 0.873029 -0.067657
v 4.334592 1.330957 -0.126201
v 4.421535 1.330957 -0.142120
v 4.383194 1.326068 -0.106140
v 4.451520 0.407517 -0.154469
v 4.302177 0.407517 -0.127125
v 4.385541 0.408671 -0.093324
vt 0.500000 0.750000
vt 1.000000 0.750000
vt 1.000000 1.000000
vt 0.500000 1.000000
vt 0.500000 0.250000
vt 1.000000 0.250000
vt 1.000000 0.500000
vt 0.500000 0.500000
vt 0.000000 0.250000
vt 0.000000 0.500000
vt 0.000000 0.750000
vt 0.000000 1.000000
vt 0.000000 0.000000
vt 0.500000 0.000000
vt 1.000000 0.000000
vn -0.1781 -0.1470 -0.9729
vn 0.3439 -0.1371 -0.9289
vn 0.3190 -0.1928 -0.9279
vn -0.1757 -0.2199 -0.9596
vn -0.1792 0.0974 -0.9789
vn 0.3461 0.0868 -0.9341
vn 0.3731 -0.0133 -0.9276
vn -0.1801 -0.0129 -0.9836
vn -0.6547 0.0868 -0.7509
vn -0.6776 -0.0133 -0.7353
vn -0.6507 -0.1371 -0.7468
vn -0.6271 -0.1928 -0.7547
vn -0.6314 0.1231 -0.7656
vn -0.1783 0.1407 -0.9738
vn 0.3192 0.1231 -0.9396
usemtl None
s 1
f 170/159/153 168/160/154 162/161/155 166/162/156
f 173/163/157 172/164/158 164/165/159 167/166/160
f 171/167/161 173/163/157 167/166/160 163/168/162
f 169/169/163 170/159/153 166/162/156 161/170/164
f 163/168/162 167/166/160 170/159/153 169/169/163
f 167/166/160 164/165/159 168/160/154 170/159/153
f 159/171/165 165/172/166 173/163/157 171/167/161
f 165/172/166 160/173/167 172/164/158 173/163/157
o Plane.012
v 4.324688 0.057877 -0.167548
v 4.164396 0.057877 -0.177129
v 4.269823 1.943012 -0.186729
v 4.221157 1.943012 -0.189638
v 4.321260 1.016731 -0.085628
v 4.158041 1.016731 -0.095384
v 4.242614 0.018153 -0.140072
v 4.245387 1.982974 -0.186470
v 4.236575 1.012604 -0.039038
v 4.189473 1.550744 -0.121446
v 4.293158 1.550744 -0.115249
v 4.239318 1.544999 -0.084932
v 4.330840 0.465551 -0.120940
v 4.152737 0.465551 -0.131585
v 4.238404 0.466907 -0.069647
vt 0.500000 0.750000
vt 1.000000 0.750000
vt 1.000000 1.000000
vt 0.500000 1.000000
vt 0.500000 0.250000
vt 1.000000 0.250000
vt 1.000000 0.500000
vt 0.500000 0.500000
vt 0.000000 0.250000
vt 0.000000 0.500000
vt 0.000000 0.750000
vt 0.000000 1.000000
vt 0.000000 0.000000
vt 0.500000 0.000000
vt 1.000000 0.000000
vn 0.0590 -0.1470 -0.9874
vn 0.5555 -0.1371 -0.8201
vn 0.5311 -0.1928 -0.8251
vn 0.0582 -0.2199 -0.9738
vn 0.0594 0.0974 -0.9935
vn 0.5589 0.0868 -0.8246
vn 0.5836 -0.0133 -0.8119
vn 0.0596 -0.0129 -0.9981
vn -0.4567 0.0868 -0.8853
vn -0.4827 -0.0133 -0.8756
vn -0.4539 -0.1371 -0.8804
vn -0.4290 -0.1928 -0.8825
vn -0.4306 0.1231 -0.8941
vn 0.0591 0.1407 -0.9883
vn 0.5341 0.1231 -0.8364
usemtl None
s 1
f 185/174/168 183/175/169 177/176/170 181/177/171
f 188/178/172 187/179/173 179/180/174 182/181/175
f 186/182/176 188/178/172 182/181/175 178/183/177
f 184/184/178 185/174/168 181/177/171 176/185/179
f 178/183/177 182/181/175 185/174/168 184/184/178
f 182/181/175 179/180/174 183/175/169 185/174/168
f 174/186/180 180/187/181 188/178/172 186/182/176
f 180/187/181 175/188/182 187/179/173 188/178/172
o Plane.013
v 4.165705 0.068622 -0.195778
v 4.048016 0.068622 -0.172253
v 4.122401 1.477586 -0.199220
v 4.086669 1.477586 -0.192078
v 4.178789 0.785277 -0.135910
v 4.058951 0.785277 -0.111956
v 4.111596 0.038933 -0.160325
v 4.104786 1.507454 -0.194391
v 4.126423 0.782192 -0.086144
v 4.076720 1.184402 -0.136766
v 4.152847 1.184402 -0.151983
v 4.119688 1.180108 -0.119840
v 4.179005 0.373321 -0.163255
v 4.048239 0.373321 -0.137117
v 4.121931 0.374335 -0.108618
vt 0.500000 0.750000
vt 1.000000 0.750000
vt 1.000000 1.000000
vt 0.500000 1.000000
vt 0.500000 0.250000
vt 1.000000 0.250000
vt 1.000000 0.500000
vt 0.500000 0.500000
vt 0.000000 0.250000
vt 0.000000 0.500000
vt 0.000000 0.750000
vt 0.000000 1.000000
vt 0.000000 0.000000
vt 0.500000 0.000000
vt 1.000000 0.000000
vn -0.1939 -0.1470 -0.9699
vn 0.3288 -0.1371 -0.9344
vn 0.3039 -0.1928 -0.9330
vn -0.1912 -0.2199 -0.9566
vn -0.1951 0.0974 -0.9759
vn 0.3310 0.0868 -0.9396
vn 0.3581 -0.0133 -0.9336
vn -0.1960 -0.0129 -0.9805
vn -0.6667 0.0868 -0.7402
vn -0.6895 -0.0133 -0.7242
vn -0.6627 -0.1371 -0.7361
vn -0.6392 -0.1928 -0.7444
vn -0.6437 0.1231 -0.7552
vn -0.1940 0.1407 -0.9708
vn 0.3039 0.1231 -0.9447
usemtl None
s 1
f 200/189/183 198/190/184 192/191/185 196/192/186
f 203/193/187 202/194/188 194/195/189 197/196/190
f 201/197/191 203/193/187 197/196/190 193/198/192
f 199/199/193 200/189/183 196/192/186 191/200/194
f 193/198/192 197/196/190 200/189/183 199/199/193
f 197/196/190 194/195/189 198/190/184 200/189/183
f 189/201/195 195/202/196 203/193/187 201/197/191
f 195/202/196 190/203/197 202/194/188 203/193/187
o Plane.014
v 4.052244 0.050038 -0.164301
v 3.939964 0.050038 -0.206695
v 4.017340 1.909607 -0.190161
v 3.983250 1.909607 -0.203033
v 4.031626 0.995888 -0.106592
v 3.917296 0.995888 -0.149760
v 3.987570 0.010853 -0.162896
v 3.999842 1.949028 -0.195397
v 3.960849 0.991817 -0.092125
v 3.945510 1.522659 -0.161390
v 4.018139 1.522659 -0.133967
v 3.972987 1.516992 -0.124272
v 4.046296 0.452183 -0.129671
v 3.921540 0.452183 -0.176775
v 3.968944 0.453521 -0.113565
vt 0.500000 0.750000
vt 1.000000 0.750000
vt 1.000000 1.000000
vt 0.500000 1.000000
vt 0.500000 0.250000
vt 1.000000 0.250000
vt 1.000000 0.500000
vt 0.500000 0.500000
vt 0.000000 0.250000
vt 0.000000 0.500000
vt 0.000000 0.750000
vt 0.000000 1.000000
vt 0.000000 0.000000
vt 0.500000 0.000000
vt 1.000000 0.000000
vn 0.3510 -0.1118 -0.9297
vn 0.7766 -0.1053 -0.6211
vn 0.7580 -0.1473 -0.6353
vn 0.3482 -0.1684 -0.9222
vn 0.3522 0.0742 -0.9330
vn 0.7798 0.0658 -0.6225
vn 0.7983 -0.0107 -0.6021
vn 0.3532 -0.0094 -0.9355
vn -0.1737 0.0658 -0.9826
vn -0.2011 -0.0107 -0.9795
vn -0.1723 -0.1053 -0.9794
vn -0.1489 -0.1473 -0.9778
vn -0.1463 0.0936 -0.9848
vn 0.3512 0.1070 -0.9301
vn 0.7607 0.0936 -0.6423
usemtl None
s 1
f 215/204/198 213/205/199 207/206/200 211/207/201
f 218/208/202 217/209/203 209/210/204 212/211/205
f 216/212/206 218/208/202 212/211/205 208/213/207
f 214/214/208 215/204/198 211/207/201 206/215/209
f 208/213/207 212/211/205 215/204/198 214/214/208
f 212/211/205 209/210/204 213/205/199 215/204/198
f 204/216/210 210/217/211 218/208/202 216/212/206
f 210/217/211 205/218/212 217/209/203 218/208/202
o Plane.015
v -0.746423 -0.032335 0.863399
v 1.080100 -0.032335 0.048653
v -0.478271 -0.032335 1.044490
v -0.478271 -0.032335 -0.955510
v -0.478271 1.967665 1.044490
v -0.478271 1.967665 -0.955510
v 0.966720 -0.032335 0.261992
v -0.744268 -0.032335 -0.773632
v -0.746423 1.967665 0.863400
v 0.966720 1.967665 0.261993
v 1.080100 1.967665 0.048653
v -0.744269 1.967665 -0.773632
vt 0.000000 0.000000
vt 1.000000 0.000000
vt 1.000000 1.000000
vt 0.000000 1.000000
vt 0.000000 0.000000
vt 1.000000 0.000000
vt 1.000000 1.000000
vt 0.000000 1.000000
vt 0.000000 0.000000
vt 1.000000 0.000000
vt 1.000000 1.000000
vt 0.000000 1.000000
vn 1.0000 -0.0000 -0.0000
vn 0.4074 -0.0000 0.9133
vn -0.5178 -0.0000 0.8555
usemtl None
s off
f 221/219/213 222/220/213 224/221/213 223/222/213
f 219/223/214 220/224/214 229/225/214 227/226/214
f 226/227/215 225/228/215 228/229/215 230/230/215
